# xmcd CD database file
#
# Track frame offsets:
#	150
#	10324
#	22100
#	36648
#	50785
#	66115
#	76569
#	87266
#	97606
#	109154
#	122868
#
# Disc length: 1825 seconds
#
# Revision: 0
# Processed by: cddbd v1.5.1PL2 Copyright (c) Steve Scherf et al.
# Submitted via: CDex 1.50
#
DISCID=89071f0b
DTITLE=Vernon Oxford - Keepin' It Country
DYEAR=2001
DGENRE=Country
TTITLE0=I Feel Chained
TTITLE1=Sad Situation
TTITLE2=Long Black Veil
TTITLE3=Outlaws Again
TTITLE4=The Last Letter
TTITLE5=You're The Reason
TTITLE6=Baby Sister
TTITLE7=Busiest Memory In Town
TTITLE8=Honky Tonk Troubles
TTITLE9=Bringing Mary Home
TTITLE10=Early Morning Rain
EXTD=YEAR: 2001
EXTT0=
EXTT1=
EXTT2=
EXTT3=
EXTT4=
EXTT5=
EXTT6=
EXTT7=
EXTT8=
EXTT9=
EXTT10=
PLAYORDER=
